<?xml version="1.0" encoding="UTF-8" standalone="no"?>
<!-- Created with Inkscape (http://www.inkscape.org/) -->

<svg
   width="210mm"
   height="297mm"
   viewBox="0 0 210 297"
   version="1.1"
   id="svg5"
   inkscape:version="1.1 (c68e22c387, 2021-05-23)"
   sodipodi:docname="acmf background.svg"
   xmlns:inkscape="http://www.inkscape.org/namespaces/inkscape"
   xmlns:sodipodi="http://sodipodi.sourceforge.net/DTD/sodipodi-0.dtd"
   xmlns="http://www.w3.org/2000/svg"
   xmlns:svg="http://www.w3.org/2000/svg">
  <sodipodi:namedview
     id="namedview7"
     pagecolor="#505050"
     bordercolor="#eeeeee"
     borderopacity="1"
     inkscape:pageshadow="0"
     inkscape:pageopacity="0"
     inkscape:pagecheckerboard="0"
     inkscape:document-units="mm"
     showgrid="false"
     inkscape:zoom="1.8529742"
     inkscape:cx="395.31042"
     inkscape:cy="324.61327"
     inkscape:window-width="1920"
     inkscape:window-height="1017"
     inkscape:window-x="-8"
     inkscape:window-y="-8"
     inkscape:window-maximized="1"
     inkscape:current-layer="layer1" />
  <defs
     id="defs2" />
  <g
     inkscape:label="Layer 1"
     inkscape:groupmode="layer"
     id="layer1">
    <g
       id="g414"
       transform="matrix(0.24709653,0,0,0.3132987,74.262998,21.183777)">
      <rect
         style="fill:#333333;fill-rule:evenodd;stroke-width:0.75976"
         id="rect31"
         width="841.88074"
         height="424.36731"
         x="-296.42886"
         y="-63.969238"
         inkscape:export-filename="C:\Users\Atlas\Pictures\path306.png"
         inkscape:export-xdpi="96"
         inkscape:export-ydpi="96" />
      <path
         style="fill:#f9f9f9;stroke-width:0.264583"
         id="path280"
         d="m -237.97058,278.21355 c 3.50242,-0.32636 8.54775,-0.64376 11.6516,-1.83901 15.77452,-6.07465 26.68933,-13.95538 40.53668,-24.70678 25.23646,-19.59415 31.48942,-27.78632 54.55749,-51.45806 26.5832,-30.4361 26.9933,-30.15878 51.431306,-60.94564 6.656115,-8.38533 13.228643,-16.83972 19.621921,-25.42713 6.291768,-8.45107 19.298438,-26.85452 25.259289,-36.829753 2.214856,-3.706469 3.983143,-7.662151 5.974715,-11.493225 -1.791407,0.922446 -4.059251,1.24061 -5.37422,2.767338 -2.989064,3.470423 -4.815112,7.793873 -7.127414,11.747555 -3.196138,5.464908 -6.410825,10.922797 -9.396349,16.50555 -5.702628,10.663575 -13.466077,25.830735 -16.524335,37.630395 -2.034609,7.85013 -2.607297,16.00808 -3.910946,24.01212 -0.428078,8.67095 -1.311863,17.33138 -1.284232,26.01284 0.02966,9.31827 0.703585,18.62911 1.455877,27.91701 1.503633,18.56404 3.835789,33.76061 7.005982,52.03594 1.303605,7.51493 2.827948,14.98991 4.241921,22.48487 0,0 2.22073,-1.18518 2.22073,-1.18518 v 0 c -1.46277,-7.4663 -3.048979,-14.90945 -4.38831,-22.39887 -3.150484,-17.61722 -5.713383,-34.05781 -7.138268,-51.93853 -0.741008,-9.2988 -1.345295,-18.62471 -1.335095,-27.95298 0.0095,-8.69146 0.92942,-17.35807 1.394132,-26.0371 1.382098,-8.02302 2.060853,-16.19951 4.146301,-24.06907 1.7692,-6.67618 4.571812,-13.05008 7.364333,-19.36699 4.636468,-10.48807 12.918062,-25.059246 18.977824,-34.895732 2.493777,-4.048014 5.523286,-7.76102 7.868081,-11.897114 0.178771,-0.315343 -0.723601,-0.04478 -1.0854,-0.06718 -1.872387,3.766884 -3.509595,7.660124 -5.617157,11.300648 -5.738794,9.912972 -18.360816,28.110558 -24.498368,36.478348 -6.262746,8.53848 -12.70721,16.94457 -19.256201,25.26553 -24.038797,30.54298 -24.929327,30.74306 -51.277667,60.86635 -25.94198,26.40116 -27.57175,29.85106 -55.34318,51.74112 -13.10318,10.32821 -20.87123,16.15548 -35.68441,21.7747 -3.08455,1.17009 -7.86804,1.41229 -11.31514,1.6968 0,0 -3.15149,2.27123 -3.15149,2.27123 z"
         inkscape:export-filename="C:\Users\Atlas\Pictures\path306.png"
         inkscape:export-xdpi="96"
         inkscape:export-ydpi="96" />
      <path
         style="fill:#f9f9f9;stroke-width:0.264583"
         id="path282"
         d="M 82.252605,91.493214 C 80.442789,90.0696 78.779533,88.436745 76.823156,87.222371 69.832976,82.883385 62.070503,79.047082 53.383335,79.95168 39.959354,81.349521 21.116319,91.070154 12.098323,100.05154 5.6094468,106.51407 1.9335834,115.28825 -3.1487861,122.9066 c -2.495215,9.63067 -7.4836669,18.94334 -7.4856449,28.89199 -0.0049,24.72792 12.3463372,46.76682 30.981466,62.43899 11.05191,9.29468 24.226707,16.07696 37.609856,21.50163 33.380727,13.5304 48.382979,11.61675 82.664179,13.3447 24.72773,-3.44531 29.82064,-2.47611 51.52958,-10.94938 5.05966,-1.97485 9.702,-4.88589 14.553,-7.32883 0,0 2.28676,-1.8317 2.28676,-1.8317 v 0 c -4.95,2.53962 -9.68456,5.55236 -14.84999,7.61886 -22.0392,8.81707 -27.21354,7.89213 -52.34537,11.64655 C 107.23712,246.71 92.545322,248.84383 58.959718,235.08781 45.660254,229.6406 32.60005,222.7788 21.666495,213.45114 3.1739617,197.67476 -8.9437135,175.58018 -8.7736168,150.90976 c 0.068683,-9.9616 5.1014896,-19.25948 7.6522346,-28.88922 5.1678874,-7.62035 9.1364492,-16.21008 15.5036622,-22.861047 8.098702,-8.459624 24.726002,-16.23994 36.470297,-17.431771 8.589936,-0.87172 16.159808,2.936779 22.955007,7.38478 1.865267,1.220967 3.402383,2.881611 5.103574,4.322418 0,0 3.341447,-1.941706 3.341447,-1.941706 z"
         inkscape:export-filename="C:\Users\Atlas\Pictures\path306.png"
         inkscape:export-xdpi="96"
         inkscape:export-ydpi="96" />
      <path
         style="fill:#f9f9f9;stroke-width:0.264583"
         id="path294"
         d="m 188.20514,278.17085 c 1.02865,-0.0793 2.07559,-0.0292 3.08596,-0.23792 11.39594,-2.35447 13.78681,-4.11043 24.63568,-14.53095 6.42421,-6.17057 12.17385,-13.08104 17.30988,-20.35892 16.92337,-23.9809 19.98849,-34.59066 31.92481,-61.528 8.21322,-27.86007 11.59756,-33.95573 14.09695,-62.2413 0.76486,-8.65583 0.64825,-17.3797 0.39735,-26.065633 -0.28006,-9.694489 -2.09711,-27.147554 -4.38341,-37.27325 -0.563,-2.493579 -1.75455,-4.802212 -2.63183,-7.203316 -1.53189,2.179566 -4.24514,3.897805 -4.59566,6.538695 -0.45394,3.420108 4.66373,33.439015 4.82883,34.397945 1.14184,6.631331 2.33839,13.253969 3.63498,19.856789 2.67901,13.64273 4.59634,21.59862 7.63231,34.87565 1.07621,4.16057 1.93294,8.38418 3.22865,12.48171 0.7307,2.31066 2.48433,11.34244 8.12663,9.75373 6.60606,-1.86007 11.23185,-7.74828 14.6668,-13.14487 1.88545,-2.96221 3.31711,-6.18994 4.97565,-9.28491 6.93841,-16.25395 10.07444,-33.76253 11.14047,-51.319501 -0.4322,-3.581488 -0.60632,-7.457435 -4.66095,6.47278 -1.17012,4.020101 -3.22059,31.846651 -3.26848,32.700451 -1.24529,22.20699 -0.83111,29.30973 -0.70326,52.16034 0.45865,29.59324 1.78525,59.16214 3.12097,88.72557 0,0 2.59942,-1.34176 2.59942,-1.34176 v 0 c -1.77239,-29.43573 -3.35386,-58.89148 -3.75851,-88.384 0.0254,-22.76751 -0.38637,-30.23491 1.1774,-52.37346 0.46519,-6.58595 1.18009,-13.15424 1.98474,-19.70738 0.54885,-4.47004 2.10426,-8.84713 2.07436,-13.350632 -0.008,-1.246632 -3.23088,-7.13009 -1.86851,-3.239765 -0.53224,13.625747 -2.4883,27.330027 -6.75188,40.326057 -1.18988,3.62696 -2.74066,7.12541 -4.11099,10.68811 -4.98805,9.11527 -4.28567,9.06069 -10.87268,16.60397 -0.796,0.91156 -1.51148,2.26499 -2.71259,2.41308 -6.01974,0.74223 -6.89416,-4.87525 -8.37663,-9.20832 -1.38424,-4.04597 -2.287,-8.24097 -3.4305,-12.36145 -1.27694,-5.33338 -2.62414,-10.65042 -3.83077,-16.00013 -3.07354,-13.62644 -5.33358,-24.78765 -7.60363,-38.618325 -1.05896,-6.452033 -1.89994,-12.93796 -2.84993,-19.406943 -0.35901,-5.096148 -0.299,-10.239259 -1.07706,-15.288443 -0.18828,-1.22179 -1.18677,-2.168972 -1.78017,-3.253459 1.0297,2.291678 2.45006,4.445288 3.08911,6.875039 2.4891,9.463727 4.57272,28.022909 4.92475,36.937989 0.34088,8.633462 0.52599,17.308102 -0.17272,25.919992 -2.29225,28.25333 -5.65394,34.19716 -13.79241,62.041 -12.18511,27.316 -15.00323,37.4876 -32.46383,61.70254 -5.3068,7.35964 -11.50788,14.0638 -17.87003,20.53292 -3.47331,3.53169 -7.27457,6.84237 -11.53605,9.36752 -3.01082,1.78409 -6.93667,1.82899 -10.35662,2.0283 0,0 -3.1966,2.32246 -3.1966,2.32246 z"
         inkscape:export-filename="C:\Users\Atlas\Pictures\path306.png"
         inkscape:export-xdpi="96"
         inkscape:export-ydpi="96" />
      <path
         style="fill:#f9f9f9;stroke-width:0.264583"
         id="path300"
         d="m 489.85696,36.947488 c -2.63642,-0.813769 -3.82355,-1.230313 -6.97095,-1.818603 -9.71264,-1.815418 -18.85442,-2.880535 -28.77601,-4.020873 -20.04022,-2.30333 -21.14671,-2.24219 -41.24996,-3.934103 -7.98225,0.397571 -26.39968,-0.145544 -33.99775,5.463434 -13.04845,9.632506 -18.84584,26.372928 -21.86715,41.328731 -6.83437,33.830616 -3.12901,47.965846 -0.963,84.614066 5.04462,51.81908 12.85041,103.29924 20.32884,154.80326 3.44916,23.7545 5.97259,40.05225 8.70029,63.21472 0.75959,6.45031 1.32903,12.92156 1.99356,19.38237 0,0 2.42837,-1.27262 2.42837,-1.27262 v 0 c -0.81561,-6.38357 -1.5525,-12.77768 -2.44684,-19.15067 -3.37855,-24.07555 -5.79731,-37.59025 -9.76699,-62.65394 -8.1361,-51.36976 -16.21121,-102.7965 -20.58643,-154.65881 -0.68496,-16.83901 -2.53471,-33.67093 -2.05489,-50.51704 0.5869,-20.604744 4.35792,-40.332416 12.83099,-59.082529 2.31265,-5.117666 4.61415,-10.775852 9.06402,-14.201868 7.43897,-5.727385 26.32049,-5.29169 34.1757,-5.726387 18.90416,1.589558 22.29178,1.678466 41.08122,4.037764 10.17791,1.27799 18.32147,2.402543 28.07462,4.464724 3.33949,0.706091 4.07434,1.024657 6.7374,1.958094 0,0 3.26496,-2.22972 3.26496,-2.22972 z"
         inkscape:export-filename="C:\Users\Atlas\Pictures\path306.png"
         inkscape:export-xdpi="96"
         inkscape:export-ydpi="96" />
      <path
         style="fill:#f9f9f9;stroke-width:0.264583"
         id="path306"
         d="m -145.70354,192.22254 c 3.49527,2.78081 7.61238,4.30055 11.85127,5.59053 6.46147,1.96637 11.04928,2.95219 18.09244,2.90329 5.05386,-0.0351 10.07997,-0.75169 15.11996,-1.12754 5.85022,-0.93982 11.741654,-1.65164 17.550661,-2.81946 19.244939,-3.86893 38.016613,-9.94586 56.748375,-15.7052 28.2779243,-8.69443 25.6287403,-7.89956 55.286573,-17.13133 29.371597,-9.27078 39.230085,-12.94108 70.333787,-20.23261 15.447394,-3.62127 31.000564,-6.79226 46.582234,-9.78343 38.98664,-7.48416 62.77311,-11.15168 102.66769,-15.09336 17.45755,-1.72485 34.98437,-2.65704 52.47653,-3.98557 50.12274,-1.32224 49.45173,-1.96691 98.87069,-0.70455 14.02056,0.35815 28.02786,1.12162 42.04181,1.68243 0,0 1.0218,-0.73661 1.0218,-0.73661 v 0 c -14.12325,-0.48289 -28.24166,-1.13808 -42.36974,-1.44866 -51.37978,-1.12951 -46.93436,-0.59234 -99.09514,0.86085 -17.51031,1.34097 -35.05287,2.31197 -52.5309,4.02291 -41.40745,4.05342 -61.95019,7.22355 -102.34428,14.84261 -15.43872,2.91202 -30.86108,5.94525 -46.17298,9.46371 -31.16166,7.16052 -40.488821,10.6644 -69.896088,19.88601 -46.39064,14.29344 -12.004924,3.75446 -54.763912,16.72835 -18.696168,5.67277 -37.378717,11.80387 -56.575857,15.62192 -5.757405,1.14508 -11.597722,1.82441 -17.396584,2.73661 -4.951919,0.33335 -9.892629,1.00204 -14.855749,1.00006 -6.77935,-0.003 -11.57846,-1.02385 -17.8272,-2.9803 -4.13282,-1.29396 -8.14471,-2.83098 -11.45568,-5.68514 0,0 -3.35971,2.09448 -3.35971,2.09448 z"
         inkscape:export-filename="C:\Users\Atlas\Pictures\path306.png"
         inkscape:export-xdpi="96"
         inkscape:export-ydpi="96" />
    </g>
    <rect
       style="fill:#333333;stroke-width:0.264583"
       id="rect879"
       width="209.45372"
       height="166.75926"
       x="0.15972368"
       y="130.24074"
       ry="0" />
    <rect
       style="fill:#333333;stroke-width:0.264583"
       id="rect883"
       width="209.45374"
       height="13.564894"
       x="1.0164545"
       y="-12.422596" />
    <rect
       style="fill:#333333;stroke-width:0.264583"
       id="rect885"
       width="10.566345"
       height="117.08654"
       x="206.32933"
       y="-0.99951923" />
    <rect
       style="fill:#333333;stroke-width:0.264583"
       id="rect887"
       width="14.992788"
       height="19.704807"
       x="204.47308"
       y="113.37404" />
    <rect
       style="fill:#333333;stroke-width:0.264583"
       id="rect889"
       width="7.1394229"
       height="87.672112"
       x="-4.9975958"
       y="43.55048" />
    <rect
       style="fill:#333333;stroke-width:0.264583"
       id="rect891"
       width="8.8528843"
       height="54.687981"
       x="-4.9975958"
       y="-5.2831726" />
    <rect
       style="fill:#333333;stroke-width:0.264583"
       id="rect893"
       width="8.1389418"
       height="99.951927"
       x="-4.9975958"
       y="131.2226" />
    <rect
       style="fill:#333333;stroke-width:0.264583"
       id="rect895"
       width="12.850961"
       height="66.396622"
       x="-4.9975958"
       y="231.17453" />
    <rect
       style="fill:#333333;stroke-width:0.264583"
       id="rect897"
       width="11.280289"
       height="95.811058"
       x="202.18846"
       y="201.33173" />
    <rect
       style="fill:#333333;stroke-width:0.264583"
       id="rect899"
       width="12.137012"
       height="68.681259"
       x="204.47308"
       y="133.07884" />
  </g>
</svg>